<svg xmlns="http://www.w3.org/2000/svg" width="25" height="24" viewBox="0 0 25 24" fill="none">
  <g clip-path="url(#clip0_1_253)">
    <path d="M20.5 13.6V12C20.5 11.5757 20.3315 11.1687 20.0314 10.8687C19.7314 10.5686 19.3244 10.4 18.9 10.4H2.90005C2.4757 10.4 2.06874 10.5686 1.76868 10.8687C1.46862 11.1687 1.30005 11.5757 1.30005 12V21.6C1.30005 22.0244 1.46862 22.4314 1.76868 22.7314C2.06874 23.0315 2.4757 23.2 2.90005 23.2H18.9C19.3244 23.2 19.7314 23.0315 20.0314 22.7314C20.3315 22.4314 20.5 22.0244 20.5 21.6V20M20.5 13.6H14.1C13.2514 13.6 12.4374 13.9372 11.8373 14.5373C11.2372 15.1374 10.9 15.9514 10.9 16.8C10.9 17.6487 11.2372 18.4627 11.8373 19.0628C12.4374 19.6629 13.2514 20 14.1 20H20.5M20.5 13.6C21.3487 13.6 22.1627 13.9372 22.7628 14.5373C23.3629 15.1374 23.7 15.9514 23.7 16.8C23.7 17.6487 23.3629 18.4627 22.7628 19.0628C22.1627 19.6629 21.3487 20 20.5 20M6.10005 10.4V5.60005C6.10005 4.32701 6.60576 3.10611 7.50594 2.20594C8.40611 1.30576 9.62701 0.800049 10.9 0.800049C12.1731 0.800049 13.394 1.30576 14.2942 2.20594C15.1943 3.10611 15.7 4.32701 15.7 5.60005V10.4M19.7 16.8H21.3M16.5 16.8H18.1M13.3 16.8H14.9" stroke="white" stroke-width="1.6"/>
  </g>
  <defs>
    <clipPath id="clip0_1_253">
      <rect width="24" height="24" fill="white" transform="translate(0.5)"/>
    </clipPath>
  </defs>
</svg>