<svg xmlns="http://www.w3.org/2000/svg" width="25" height="24" viewBox="0 0 25 24" fill="none">
  <path fill-rule="evenodd" clip-rule="evenodd" d="M12.976 2.75C10.226 2.75 8.012 4.95 8.012 7.647C8.012 8.109 8.077 8.556 8.197 8.978C8.694 9.122 9.16 9.338 9.58 9.618C9.66639 9.67033 9.74132 9.73958 9.8003 9.82158C9.85927 9.90358 9.90108 9.99665 9.9232 10.0952C9.94533 10.1938 9.94732 10.2958 9.92906 10.3951C9.91079 10.4944 9.87265 10.5891 9.81692 10.6733C9.76118 10.7576 9.68901 10.8297 9.60472 10.8853C9.52044 10.941 9.42578 10.9791 9.32642 10.9972C9.22706 11.0154 9.12506 11.0133 9.02652 10.9911C8.92799 10.9689 8.83495 10.927 8.753 10.868C8.16992 10.4817 7.48546 10.2767 6.786 10.279C4.825 10.279 3.25 11.849 3.25 13.765C3.25 15.681 4.825 17.25 6.786 17.25C6.98491 17.25 7.17568 17.329 7.31633 17.4697C7.45698 17.6103 7.536 17.8011 7.536 18C7.536 18.1989 7.45698 18.3897 7.31633 18.5303C7.17568 18.671 6.98491 18.75 6.786 18.75C4.013 18.75 1.75 16.526 1.75 13.765C1.75 11.06 3.92 8.872 6.614 8.782C6.54632 8.40745 6.51218 8.02761 6.512 7.647C6.512 4.106 9.414 1.25 12.976 1.25C16.134 1.25 18.772 3.494 19.331 6.471C21.631 7.448 23.25 9.709 23.25 12.353C23.25 15.427 21.062 17.984 18.157 18.606C17.9625 18.6476 17.7594 18.6103 17.5924 18.5022C17.4254 18.3941 17.3081 18.224 17.2665 18.0295C17.2249 17.835 17.2622 17.6319 17.3703 17.4649C17.4784 17.2979 17.6485 17.1806 17.843 17.139C20.083 16.659 21.75 14.693 21.75 12.353C21.75 10.216 20.36 8.391 18.412 7.725C17.8887 7.54567 17.3392 7.45443 16.786 7.455C16.203 7.455 15.646 7.555 15.128 7.735C14.9414 7.79593 14.7383 7.78126 14.5624 7.69415C14.3865 7.60704 14.2517 7.45443 14.1871 7.26909C14.1224 7.08374 14.133 6.88043 14.2166 6.7028C14.3001 6.52516 14.45 6.38737 14.634 6.319C15.6037 5.97978 16.6401 5.87526 17.658 6.014C17.3087 5.05402 16.6715 4.22531 15.8335 3.6411C14.9955 3.05689 13.9975 2.74568 12.976 2.75ZM11.951 13.25H13.049C13.714 13.25 14.287 13.25 14.746 13.312C15.238 13.378 15.709 13.527 16.091 13.909C16.473 14.291 16.622 14.762 16.688 15.254C16.75 15.713 16.75 16.286 16.75 16.951V19.049C16.75 19.714 16.75 20.287 16.688 20.746C16.622 21.238 16.473 21.709 16.091 22.091C15.709 22.473 15.238 22.622 14.746 22.688C14.287 22.75 13.714 22.75 13.049 22.75H11.951C11.286 22.75 10.713 22.75 10.254 22.688C9.763 22.622 9.291 22.473 8.909 22.091C8.527 21.709 8.378 21.237 8.312 20.746C8.25 20.287 8.25 19.714 8.25 19.049V16.951C8.25 16.286 8.25 15.713 8.312 15.254C8.378 14.762 8.527 14.291 8.909 13.909C9.291 13.527 9.763 13.378 10.254 13.312C10.713 13.25 11.286 13.25 11.951 13.25ZM10.454 14.798C10.129 14.842 10.027 14.913 9.97 14.97C9.913 15.027 9.842 15.129 9.798 15.454C9.752 15.801 9.75 16.272 9.75 17V19C9.75 19.728 9.752 20.2 9.798 20.546C9.842 20.871 9.913 20.973 9.97 21.03C10.027 21.087 10.129 21.158 10.454 21.202C10.801 21.248 11.272 21.25 12 21.25H13C13.728 21.25 14.2 21.248 14.546 21.202C14.871 21.158 14.973 21.087 15.03 21.03C15.087 20.973 15.158 20.871 15.202 20.546C15.248 20.199 15.25 19.728 15.25 19V17C15.25 16.272 15.248 15.8 15.202 15.454C15.158 15.129 15.087 15.027 15.03 14.97C14.973 14.913 14.871 14.842 14.546 14.798C14.199 14.752 13.728 14.75 13 14.75H12C11.272 14.75 10.8 14.752 10.454 14.798ZM10.75 18C10.75 17.8011 10.829 17.6103 10.9697 17.4697C11.1103 17.329 11.3011 17.25 11.5 17.25H13.5C13.6989 17.25 13.8897 17.329 14.0303 17.4697C14.171 17.6103 14.25 17.8011 14.25 18C14.25 18.1989 14.171 18.3897 14.0303 18.5303C13.8897 18.671 13.6989 18.75 13.5 18.75H11.5C11.3011 18.75 11.1103 18.671 10.9697 18.5303C10.829 18.3897 10.75 18.1989 10.75 18Z" fill="white"/>
</svg>