<svg xmlns="http://www.w3.org/2000/svg" width="150" height="29" viewBox="0 0 150 29" fill="none">
  <path d="M29.4532 23.7598C29.2171 23.3839 28.9083 23.0588 28.545 22.8036C28.1818 22.5483 27.7713 22.3681 27.3376 22.2733C25.6781 21.8874 24.2389 20.8603 23.3344 19.4164C22.4299 17.9726 22.1337 16.2294 22.5105 14.5679C22.6554 13.9257 22.6073 13.255 22.3722 12.6401C22.1371 12.0251 21.7256 11.4933 21.1893 11.1115C20.653 10.7297 20.0159 10.5149 19.3578 10.494C18.6998 10.4731 18.0504 10.6471 17.4909 10.9941C16.9315 11.3412 16.4871 11.8458 16.2135 12.4446C15.9399 13.0434 15.8493 13.7097 15.9532 14.3598C16.057 15.0099 16.3507 15.6148 16.7972 16.0986C17.2437 16.5823 17.8232 16.9234 18.4629 17.0788C19.2905 17.2655 20.0731 17.6137 20.7659 18.1034C21.4587 18.5931 22.048 19.2148 22.5 19.9326C22.9521 20.6506 23.258 21.4506 23.4002 22.287C23.5425 23.1233 23.5183 23.9796 23.329 24.8066C23.2169 25.3397 23.2369 25.8921 23.3872 26.4157C23.5376 26.9393 23.8137 27.4182 24.1915 27.8107C24.5694 28.2031 25.0374 28.4972 25.555 28.6673C26.0725 28.8375 26.6238 28.8784 27.1607 28.7866C27.6978 28.6948 28.2041 28.4731 28.6358 28.1408C29.0675 27.8085 29.4113 27.3756 29.6374 26.88C29.8634 26.3843 29.9648 25.8409 29.9327 25.2971C29.9006 24.7532 29.736 24.2255 29.4532 23.7598Z" fill="white"/>
  <path d="M8.91413 20.0516C9.49852 20.3705 10.1648 20.5075 10.8276 20.4451C11.4904 20.3827 12.1194 20.1237 12.634 19.7013C13.1485 19.2788 13.5251 18.7123 13.7154 18.0744C13.9058 17.4365 13.9012 16.7562 13.7022 16.1209C13.45 15.3109 13.3601 14.459 13.4378 13.6141C13.5155 12.7693 13.7591 11.948 14.1548 11.1976C14.5505 10.4471 15.0904 9.78205 15.7437 9.24061C16.3969 8.69917 17.1505 8.29204 17.9614 8.04245C18.5903 7.84547 19.1468 7.46686 19.561 6.9543C19.9752 6.44175 20.2286 5.81812 20.2891 5.16189C20.3498 4.50566 20.2149 3.84616 19.9016 3.26643C19.5883 2.68666 19.1105 2.21252 18.5283 1.90369C17.9461 1.59487 17.2857 1.4651 16.63 1.5308C15.9742 1.59646 15.3526 1.8546 14.8432 2.27278C14.3338 2.69091 13.9595 3.25039 13.7674 3.88077C13.5753 4.51114 13.5739 5.18427 13.7634 5.81542C14.261 7.44485 14.0927 9.20506 13.2955 10.7107C12.4983 12.2164 11.1372 13.3449 9.50986 13.8494C8.86745 14.0357 8.29574 14.4105 7.86877 14.9254C7.4418 15.4402 7.1792 16.0714 7.11501 16.7372C7.05086 17.403 7.18803 18.0727 7.50881 18.6597C7.82958 19.2466 8.31914 19.7238 8.91413 20.0293V20.0516Z" fill="white"/>
  <path d="M17.5109 19.5056C17.0667 19.5212 16.6302 19.6253 16.2267 19.8117C15.8233 19.9981 15.4611 20.2631 15.1613 20.5913C13.9985 21.8351 12.3905 22.5678 10.6889 22.6294C8.98724 22.691 7.33044 22.0763 6.08074 20.9198C5.75784 20.6168 5.37795 20.381 4.96313 20.2262C4.54835 20.0713 4.10689 20.0005 3.66446 20.0178C3.11987 20.0435 2.5898 20.2021 2.12061 20.4798C1.65138 20.7574 1.2573 21.1457 0.97269 21.6107C0.688041 22.0757 0.521581 22.6033 0.487748 23.1474C0.453957 23.6916 0.553818 24.2358 0.778697 24.7324C1.00358 25.2291 1.34656 25.6632 1.77779 25.9968C2.20902 26.3304 2.71531 26.5534 3.25254 26.6463C3.78976 26.7392 4.34159 26.6992 4.85979 26.5298C5.37803 26.3604 5.8469 26.0667 6.22547 25.6744C6.8014 25.0509 7.49465 24.5471 8.26555 24.1919C9.03649 23.8367 9.8699 23.6371 10.7181 23.6045C11.5663 23.572 12.4125 23.707 13.2084 24.002C14.0043 24.297 14.7342 24.7461 15.3562 25.3237C15.7612 25.6896 16.2497 25.9507 16.7789 26.0841C17.3081 26.2176 17.8619 26.2194 18.392 26.0893C18.9221 25.9592 19.4121 25.7012 19.8194 25.3379C20.2267 24.9746 20.5388 24.517 20.7284 24.0052C20.9179 23.4933 20.9791 22.9429 20.9068 22.4019C20.8344 21.861 20.6305 21.346 20.313 20.902C19.9955 20.4581 19.5742 20.0987 19.0857 19.8552C18.5972 19.6118 18.0565 19.4917 17.5109 19.5056Z" fill="white"/>
  <path d="M52.6186 23.976C54.4124 23.976 55.5304 23.3248 55.9727 22.0225C56.1201 21.5311 56.2307 20.9045 56.3044 20.1427L55.3461 20.1059C55.1987 21.8014 54.7687 22.6614 54.0561 22.686C53.5155 22.6368 53.2452 22.0225 53.2452 20.8431V13.1397C53.2452 10.0682 51.82 8.17615 48.9696 7.46356C48.2325 7.29155 47.4339 7.20555 46.5739 7.20555C43.2321 7.20555 41.1311 7.93043 40.2711 9.38018C40.05 9.74876 39.9394 10.1419 39.9394 10.5596C39.9394 11.5179 40.394 12.12 41.3032 12.3657C41.5243 12.4394 41.7577 12.4763 42.0035 12.4763C43.0601 12.4763 43.7726 11.9602 44.1412 10.9282C44.1904 10.7808 44.2641 10.5351 44.3624 10.1911C44.6327 9.20817 44.9767 8.59387 45.3944 8.34815C45.6647 8.22529 45.9718 8.16386 46.3159 8.16386C47.4707 8.16386 48.171 8.86416 48.4168 10.2648C48.5151 10.7808 48.5642 11.3951 48.5642 12.1077V14.5035C42.2492 14.6263 39.0794 16.2972 39.0548 19.5162C39.0548 21.7031 40.0131 23.1037 41.9297 23.718C42.4949 23.89 43.1215 23.976 43.8095 23.976C45.8981 23.976 47.4339 23.1897 48.4168 21.6171C48.6133 21.2976 48.7731 20.9659 48.8959 20.6219C49.4119 22.7351 50.6528 23.8531 52.6186 23.976ZM45.7261 22.3911C44.4975 22.3419 43.8709 21.2485 43.8464 19.1107C43.8464 17.489 44.5098 16.4324 45.8367 15.9409C46.5493 15.7198 47.4585 15.5846 48.5642 15.5355V19.1107C48.0973 20.8308 47.3479 21.8874 46.3159 22.2805C46.0947 22.3542 45.8981 22.3911 45.7261 22.3911Z" fill="white"/>
  <path d="M66.7721 22.6491H64.0446V14.6877C64.2166 12.1077 64.8432 10.5351 65.9244 9.96991C66.0964 9.89619 66.2561 9.85933 66.4035 9.85933C66.6738 9.85933 66.9687 10.1419 67.2881 10.7071C67.7304 11.4934 68.2096 11.9848 68.7256 12.1814C68.9713 12.2551 69.2416 12.292 69.5365 12.292C70.5194 12.292 71.2197 11.8251 71.6374 10.8914C71.7848 10.5719 71.8585 10.2402 71.8585 9.89619C71.8585 8.66759 71.2565 7.89357 70.0525 7.57413C69.7576 7.50041 69.4505 7.46356 69.131 7.46356C67.6076 7.46356 66.2684 8.06557 65.1135 9.2696C64.5975 9.85933 64.2043 10.4982 63.934 11.1862L63.676 7.75842H57.2259V8.71673H59.3636V20.7325C59.3636 21.8136 58.9336 22.4279 58.0736 22.5754C57.8279 22.6245 57.5453 22.6491 57.2259 22.6491V23.6074H67.6567C67.6567 23.0423 67.497 22.7351 67.1775 22.686C67.0547 22.6614 66.9195 22.6491 66.7721 22.6491Z" fill="white"/>
  <path d="M78.1981 15.6092C78.1981 12.1691 78.6158 9.96991 79.4513 9.0116C79.9673 8.44644 80.6922 8.16386 81.6259 8.16386C83.1985 8.16386 84.206 8.96245 84.6483 10.5596C84.9432 11.5917 85.0906 13.2257 85.0906 15.4618C85.0906 19.0493 84.6237 21.3099 83.69 22.2437C83.1494 22.7597 82.4491 23.0177 81.5891 23.0177C80.0656 23.0177 79.0827 22.2314 78.6404 20.6588C78.3456 19.6022 78.1981 17.919 78.1981 15.6092ZM81.8102 7.20555C78.7879 7.20555 76.4658 8.23758 74.844 10.3016C73.7137 11.776 73.1486 13.496 73.1486 15.4618C73.1486 18.2384 74.1069 20.4376 76.0235 22.0594C77.547 23.3371 79.3653 23.976 81.4785 23.976C84.378 23.976 86.6509 22.9317 88.2972 20.8431C89.5258 19.2704 90.1402 17.4521 90.1402 15.3881C90.1402 12.636 89.1696 10.4859 87.2284 8.93788C85.7295 7.78299 83.9234 7.20555 81.8102 7.20555Z" fill="white"/>
  <path d="M99.4653 22.6491H98.8018L98.8387 13.1397C98.9861 11.1985 99.625 9.93305 100.755 9.34332C101.075 9.17132 101.394 9.08531 101.714 9.08531C102.623 9.08531 103.274 9.65047 103.667 10.7808C103.839 11.3214 103.925 11.9234 103.925 12.5868V20.7325C103.925 21.7399 103.692 22.3419 103.225 22.5385C103.004 22.6122 102.696 22.6491 102.303 22.6491V23.6074H110.117C110.117 23.0423 109.958 22.7351 109.638 22.686C109.491 22.6614 109.343 22.6491 109.196 22.6491H108.569V13.2134V12.9554C108.741 10.9159 109.405 9.65047 110.56 9.15903C110.805 9.06074 111.051 9.0116 111.297 9.0116C112.353 9.0116 113.078 9.63818 113.471 10.8914C113.619 11.4074 113.692 11.9725 113.692 12.5868V20.7325C113.692 21.7399 113.459 22.3419 112.992 22.5385C112.771 22.6122 112.464 22.6491 112.071 22.6491V23.6074H120.474C120.474 23.0423 120.315 22.7351 119.995 22.686C119.848 22.6614 119.7 22.6491 119.553 22.6491H118.337V13.0291C118.337 10.6211 117.538 8.91331 115.941 7.90585C115.204 7.43898 114.405 7.20555 113.545 7.20555C111.162 7.23012 109.38 8.37272 108.201 10.6334C107.611 8.88874 106.567 7.79528 105.068 7.35298C104.675 7.25469 104.281 7.20555 103.888 7.20555C101.529 7.23012 99.8093 8.31129 98.7281 10.4491L98.5438 7.75842H91.9831V8.71673H94.1208V20.7325C94.1208 21.8628 93.5925 22.4894 92.5359 22.6122C92.3639 22.6368 92.1796 22.6491 91.9831 22.6491V23.6074H100.35C100.35 23.0423 100.19 22.7351 99.8707 22.686C99.7478 22.6614 99.6127 22.6491 99.4653 22.6491Z" fill="white"/>
  <path d="M130.131 22.6491H128.767V7.75842H121.949V8.71673H124.086V20.7325C124.086 21.8136 123.656 22.4279 122.796 22.5754C122.551 22.6245 122.268 22.6491 121.949 22.6491V23.6074H131.016C131.016 23.0423 130.856 22.7351 130.537 22.686C130.414 22.6614 130.279 22.6491 130.131 22.6491ZM129.099 2.93001C129.099 1.84884 128.62 1.05024 127.662 0.534231C127.244 0.28851 126.802 0.165649 126.335 0.165649C125.278 0.165649 124.48 0.644805 123.939 1.60312C123.718 2.02084 123.607 2.46314 123.607 2.93001C123.607 4.01118 124.086 4.79749 125.045 5.28893C125.463 5.51008 125.893 5.62065 126.335 5.62065C127.416 5.62065 128.215 5.16607 128.731 4.2569C128.976 3.83917 129.099 3.39688 129.099 2.93001Z" fill="white"/>
  <path d="M131.937 23.6074H137.503V22.6491H134.923L139.346 17.1204L143.032 22.6491H141.004V23.6074H149.519C149.519 23.0423 149.322 22.7351 148.929 22.686C148.831 22.6614 148.72 22.6491 148.597 22.6491H147.86L142.479 14.5403L146.128 9.78562C146.619 9.12217 147.246 8.75359 148.007 8.67987C148.376 8.63073 148.597 8.4833 148.671 8.23758C148.695 8.09014 148.708 7.93043 148.708 7.75842H143.253V8.71673H145.648L141.852 13.6189L138.609 8.71673H140.636V7.75842H132.085V8.71673H133.78L138.793 16.2358L134.444 21.5802C133.928 22.1945 133.301 22.5631 132.564 22.686C132.22 22.7105 132.023 22.858 131.974 23.1283C131.95 23.2757 131.937 23.4354 131.937 23.6074Z" fill="white"/>
</svg>