<svg xmlns="http://www.w3.org/2000/svg" width="96" height="29" viewBox="0 0 96 29" fill="none">
  <path d="M18.218 6.81668C14.5812 6.81668 7.29619 3.86846 7.29619 0.231445H7.24234C7.24234 3.14234 8.39866 5.93402 10.4569 7.99237C12.5152 10.0507 15.3068 11.2072 18.2177 11.2073C19.9643 11.2073 21.6393 11.9011 22.8744 13.1361C24.1094 14.3711 24.8032 16.0461 24.8032 17.7926C24.8036 19.5392 24.1101 21.2145 22.8753 22.4497C21.6406 23.685 19.9656 24.3791 18.2191 24.3795C16.4724 24.3798 14.7973 23.6862 13.562 22.4515C12.3267 21.2167 11.6326 19.5418 11.6322 17.7952C11.6322 16.3538 11.3483 14.9266 10.7966 13.595C10.245 12.2633 9.43649 11.0534 8.41725 10.0342C7.398 9.01502 6.18801 8.20658 4.85633 7.65503C3.52466 7.10349 2.09738 6.81964 0.656006 6.8197V6.87312C4.29234 6.87312 7.24057 14.155 7.24193 17.7925H7.24124C7.24123 19.9634 7.8849 22.0854 9.0909 23.8904C10.2969 25.6954 12.0111 27.1022 14.0166 27.9329C16.0222 28.7638 18.229 28.9813 20.3582 28.5577C22.4872 28.1343 24.443 27.089 25.9781 25.5542C27.513 24.0192 28.5585 22.0636 28.9821 19.9344C29.4058 17.8054 29.1885 15.5986 28.3579 13.5929C27.5273 11.5873 26.1206 9.87304 24.3158 8.66688C22.5108 7.46072 20.3888 6.81685 18.218 6.81668Z" fill="white"/>
  <path d="M39.9365 27.2013C39.9365 27.5419 40.243 27.8485 40.5836 27.8485H42.2866C42.6954 27.8485 43.2403 27.7122 43.2403 27.2013V17.0513H49.7459V27.2013C49.7459 27.5419 50.0524 27.8485 50.393 27.8485H52.3345C52.6751 27.8485 52.9816 27.5419 52.9816 27.2013V14.8714C52.9816 14.5308 52.6751 14.2243 52.3345 14.2243H43.2403V10.0008C43.2403 7.6506 44.6709 6.66285 46.0674 6.66285C47.566 6.66285 49.3031 7.58248 49.6096 7.75279C49.9843 7.95715 50.2909 7.99121 50.4952 7.58248L51.3467 6.04976C51.517 5.77728 51.4489 5.36855 51.1764 5.19825C50.4612 4.75546 48.3494 3.66553 46.0674 3.66553C42.6954 3.66553 39.9365 5.94758 39.9365 10.0008V14.2243H38.3356C37.961 14.2243 37.6885 14.4968 37.6885 14.8714V16.4042C37.6885 16.7448 37.961 17.0513 38.3356 17.0513H39.9365V27.2013Z" fill="white"/>
  <path d="M57.4076 27.2013C57.4076 27.5419 57.7142 27.8485 58.0548 27.8485H59.6897C60.2347 27.8485 60.6093 27.7804 60.6093 27.2013V18.55C60.7456 18.3115 61.6993 16.881 63.6748 16.881C64.1176 16.881 64.6285 17.0172 64.8328 17.1194C65.1394 17.2557 65.48 17.1875 65.6503 16.8129L66.4677 15.1439C66.8424 14.2243 65.2756 13.8837 63.9813 13.8837C61.4949 13.8837 60.2347 15.5186 59.9962 15.8592L59.6216 14.7011C59.5534 14.4286 59.281 14.2243 59.0425 14.2243H58.0548C57.7142 14.2243 57.4076 14.5308 57.4076 14.8714V27.2013Z" fill="white"/>
  <path d="M67.7623 21.0364C67.7623 24.9533 70.4871 28.1891 74.6085 28.1891C76.8905 28.1891 78.6616 27.3376 79.6494 26.4861C80.0581 26.1455 79.9559 25.873 79.7175 25.6005L78.7638 24.3062C78.4913 23.9656 78.2529 24.1018 77.8442 24.3402C77.163 24.783 76.039 25.328 74.8128 25.328C72.5989 25.328 70.998 23.5228 70.8959 21.6835H80.1603C80.4669 21.6835 80.7393 21.4451 80.7734 21.1045C80.8075 20.8661 80.8415 20.4233 80.8415 20.1849C80.8415 16.5404 78.1167 13.8837 74.5744 13.8837C70.4871 13.8837 67.7623 17.1875 67.7623 21.0364ZM71.0662 19.5377C71.2705 17.8347 72.7011 16.5063 74.5403 16.5063C76.2093 16.5063 77.5717 17.9028 77.6739 19.5377H71.0662Z" fill="white"/>
  <path d="M84.1172 27.2013C84.1172 27.5419 84.4237 27.8485 84.7643 27.8485H86.7058C87.0464 27.8485 87.3529 27.5419 87.3529 27.2013V4.65328C87.3529 4.31268 87.0464 4.00613 86.7058 4.00613H84.7643C84.4237 4.00613 84.1172 4.31268 84.1172 4.65328V27.2013Z" fill="white"/>
  <path d="M93.3343 8.67242C94.4583 8.67242 95.3438 7.78685 95.3438 6.69691C95.3438 5.57291 94.4583 4.68734 93.3343 4.68734C92.2443 4.68734 91.3928 5.57291 91.3928 6.69691C91.3928 7.78685 92.2443 8.67242 93.3343 8.67242ZM91.7675 27.2013C91.7675 27.5419 92.074 27.8485 92.4146 27.8485H94.3561C94.6967 27.8485 95.0032 27.5419 95.0032 27.2013V14.8714C95.0032 14.5308 94.6967 14.2243 94.3561 14.2243H92.4146C92.074 14.2243 91.7675 14.5308 91.7675 14.8714V27.2013Z" fill="white"/>
</svg>