<svg xmlns="http://www.w3.org/2000/svg" width="162" height="29" viewBox="0 0 162 29" fill="none">
  <path d="M156.694 23.0095C156.175 22.43 155.734 21.7834 155.384 21.0868C154.831 19.995 154.066 19.0256 153.136 18.236C152.205 17.4463 151.127 16.8522 149.964 16.4888C148.948 16.1723 147.885 16.038 146.822 16.0919C147.596 16.0474 148.357 16.2989 148.954 16.796C149.551 17.2931 149.939 17.999 150.041 18.7724C150.321 20.4434 151.056 22.0032 152.165 23.2775C153.274 24.5519 154.712 25.4906 156.32 25.9889C158.159 26.5581 160.129 26.5274 161.95 25.9013C159.922 25.5682 158.068 24.5481 156.694 23.0095Z" fill="white"/>
  <path d="M143.657 15.9269C143.894 16.9586 144.31 17.9414 144.887 18.8311C144.465 18.1851 144.303 17.4058 144.432 16.6469C144.561 15.888 144.972 15.2047 145.584 14.7317C146.883 13.6652 147.858 12.2618 148.401 10.6777C148.943 9.0936 149.032 7.39105 148.658 5.75967C148.231 3.8934 147.217 2.21029 145.763 0.953247C146.487 2.87383 146.528 4.9822 145.881 6.92949C145.633 7.66464 145.288 8.36409 144.856 9.00972C144.192 10.024 143.74 11.1601 143.526 12.3508C143.312 13.5415 143.341 14.7627 143.611 15.9422L143.657 15.9269Z" fill="white"/>
  <path d="M148.188 19.5189C147.844 20.213 147.255 20.7495 146.538 21.0207C145.822 21.2919 145.031 21.2779 144.324 20.9814C142.766 20.3883 141.076 20.247 139.444 20.5732C137.812 20.8994 136.301 21.6803 135.08 22.8287C133.689 24.144 132.744 25.8743 132.383 27.7702C133.678 26.1732 135.47 25.0727 137.464 24.6503C138.213 24.4946 138.979 24.4343 139.742 24.4707C140.94 24.5338 142.139 24.3524 143.266 23.9373C144.394 23.5222 145.429 22.8818 146.309 22.0538C147.079 21.3271 147.718 20.4693 148.198 19.5189H148.188Z" fill="white"/>
  <path d="M0.050293 27.6491H4.39162V17.0775C4.39162 15.9065 4.71198 14.9675 5.35268 14.2606C5.99339 13.5536 6.83293 13.2001 7.87132 13.2001C8.9318 13.2001 9.77134 13.5536 10.39 14.2606C11.0307 14.9455 11.351 15.8844 11.351 17.0775V27.6491H15.6923V17.0775C15.6923 15.9065 16.0127 14.9675 16.6534 14.2606C17.2941 13.5536 18.1337 13.2001 19.172 13.2001C20.2325 13.2001 21.0721 13.5536 21.6907 14.2606C22.3314 14.9455 22.6517 15.8844 22.6517 17.0775V27.6491H26.9931V16.0501C26.9931 14.7024 26.6948 13.5204 26.0983 12.5041C25.5239 11.4658 24.7395 10.6594 23.7454 10.0849C22.7512 9.5105 21.6133 9.22329 20.3319 9.22329C19.1389 9.22329 18.0563 9.46631 17.0842 9.95237C16.1342 10.4384 15.3499 11.1675 14.7313 12.1396C14.201 11.2559 13.4388 10.5489 12.4446 10.0186C11.4725 9.48841 10.3789 9.22329 9.16378 9.22329C8.03702 9.22329 7.03177 9.44422 6.14804 9.88609C5.26431 10.328 4.59047 10.9908 4.12651 11.8745V9.62097H0.050293V27.6491Z" fill="white"/>
  <path d="M36.134 28.0468C38.4759 28.0468 40.3538 27.2735 41.7678 25.727V27.6491H45.8771V15.6524C45.8771 14.3931 45.5568 13.2774 44.9161 12.3053C44.2754 11.3332 43.3916 10.582 42.2649 10.0518C41.1602 9.49945 39.8678 9.22329 38.3875 9.22329C36.5759 9.22329 34.963 9.65411 33.5491 10.5157C32.1351 11.3774 31.163 12.5152 30.6328 13.9292L34.1787 15.6524C34.5101 14.835 35.0293 14.1832 35.7363 13.6972C36.4433 13.189 37.2718 12.935 38.2218 12.935C39.216 12.935 40.0114 13.2001 40.6079 13.7303C41.2265 14.2385 41.5358 14.8792 41.5358 15.6524V16.249L36.1671 17.1106C34.0462 17.4641 32.4776 18.1379 31.4613 19.1321C30.445 20.1263 29.9368 21.3746 29.9368 22.8769C29.9368 24.4677 30.5002 25.727 31.627 26.6549C32.7537 27.5828 34.2561 28.0468 36.134 28.0468ZM34.4439 22.7112C34.4439 21.4519 35.2944 20.6566 36.9956 20.3252L41.5358 19.563V20.292C41.5358 21.5293 41.105 22.5787 40.2433 23.4403C39.4038 24.302 38.2991 24.7328 36.9294 24.7328C36.2003 24.7328 35.6038 24.556 35.1398 24.2025C34.6758 23.827 34.4439 23.3299 34.4439 22.7112Z" fill="white"/>
  <path d="M49.8897 27.6491H54.231V17.6077C54.231 16.2379 54.6066 15.1774 55.3577 14.4263C56.131 13.653 57.1252 13.2664 58.3403 13.2664H59.8979V9.42213H58.8374C57.7328 9.42213 56.7607 9.62097 55.9211 10.0186C55.0816 10.4163 54.4298 11.1344 53.9659 12.1727V9.62097H49.8897V27.6491Z" fill="white"/>
  <path d="M70.9889 27.8479C71.718 27.8479 72.436 27.7927 73.143 27.6822V23.9374C72.7232 24.0037 72.3366 24.0368 71.9831 24.0368C70.9226 24.0368 70.1494 23.7938 69.6633 23.3078C69.1773 22.8217 68.9342 22.1258 68.9342 21.2199V13.4983H73.0767V9.62097H68.9342V5.51162H64.5929V6.90349C64.5929 7.78722 64.3499 8.46107 63.8638 8.92503C63.3778 9.38899 62.6929 9.62097 61.8092 9.62097H61.4778V13.4983H64.5929V21.4519C64.5929 23.4624 65.1452 25.031 66.2499 26.1578C67.3767 27.2846 68.9563 27.8479 70.9889 27.8479Z" fill="white"/>
  <path d="M76.4599 7.59943H80.8012V2.95984H76.4599V7.59943ZM76.4599 27.6491H80.8012V9.62097H76.4599V27.6491Z" fill="white"/>
  <path d="M84.8096 27.6491H89.1509V17.0775C89.1509 15.9065 89.4823 14.9675 90.1451 14.2606C90.83 13.5536 91.7137 13.2001 92.7963 13.2001C93.8789 13.2001 94.7516 13.5536 95.4144 14.2606C96.0993 14.9455 96.4417 15.8844 96.4417 17.0775V27.6491H100.783V16.0501C100.783 14.7024 100.496 13.5204 99.9214 12.5041C99.347 11.4658 98.5406 10.6594 97.5022 10.0849C96.4859 9.5105 95.3149 9.22329 93.9893 9.22329C92.8626 9.22329 91.8463 9.44422 90.9405 9.88609C90.0567 10.328 89.3718 10.9797 88.8858 11.8413V9.62097H84.8096V27.6491Z" fill="white"/>
  <path d="M113.269 28.0468C115.015 28.0468 116.605 27.6491 118.041 26.8537C119.477 26.0363 120.626 24.9206 121.488 23.5066C122.35 22.0705 122.78 20.4467 122.78 18.635C122.78 16.8234 122.35 15.2106 121.488 13.7966C120.648 12.3826 119.511 11.2669 118.075 10.4495C116.639 9.63201 115.037 9.22329 113.269 9.22329C111.48 9.22329 109.867 9.63201 108.431 10.4495C106.995 11.2669 105.846 12.3826 104.984 13.7966C104.145 15.2106 103.725 16.8234 103.725 18.635C103.725 20.4467 104.145 22.0595 104.984 23.4735C105.846 24.8874 106.995 26.0031 108.431 26.8206C109.889 27.638 111.502 28.0468 113.269 28.0468ZM113.269 24.07C112.297 24.07 111.424 23.838 110.651 23.374C109.9 22.9101 109.304 22.2694 108.862 21.4519C108.442 20.6124 108.232 19.6734 108.232 18.635C108.232 17.5966 108.442 16.6687 108.862 15.8513C109.304 15.0338 109.9 14.3931 110.651 13.9292C111.424 13.4431 112.297 13.2001 113.269 13.2001C114.241 13.2001 115.092 13.4431 115.821 13.9292C116.572 14.3931 117.158 15.0338 117.577 15.8513C118.019 16.6687 118.24 17.5966 118.24 18.635C118.24 19.6734 118.019 20.6124 117.577 21.4519C117.158 22.2694 116.572 22.9101 115.821 23.374C115.092 23.838 114.241 24.07 113.269 24.07Z" fill="white"/>
</svg>