<svg xmlns="http://www.w3.org/2000/svg" width="174" height="37" viewBox="0 0 174 37" fill="none">
  <path d="M20.5328 6.65336L21.9017 5.28443C24.5899 2.5962 28.9664 2.52967 31.6701 5.2024C32.6946 6.21741 33.3754 7.52783 33.6169 8.9496C33.8584 10.3714 33.6484 11.8331 33.0165 13.1294C32.7134 13.7487 32.6113 14.4471 32.7243 15.1272C32.8375 15.8073 33.1601 16.4351 33.6474 16.9229C34.5433 16.0249 35.2534 14.9592 35.7373 13.7866C36.2212 12.6141 36.4694 11.3577 36.4676 10.0892C36.4657 8.82074 36.2142 7.56504 35.7269 6.39387C35.2397 5.22268 34.5264 4.15897 33.628 3.26351C29.8474 -0.495814 23.7107 -0.421005 19.9406 3.34888L6.89239 16.3968L5.8197 15.3241C3.08589 12.5903 3.06846 8.12157 5.85051 5.43634C6.8803 4.44545 8.19227 3.7986 9.60535 3.58509C11.0184 3.37157 12.4629 3.60191 13.7395 4.24431C14.3222 4.5429 14.9843 4.64971 15.6313 4.5495C16.2783 4.44929 16.8771 4.14718 17.3422 3.68632L17.3754 3.65322C17.3858 3.64294 17.394 3.63071 17.3996 3.61723C17.4052 3.60376 17.4081 3.58931 17.4081 3.57472C17.4081 3.56013 17.4052 3.54567 17.3996 3.53221C17.394 3.51874 17.3858 3.50651 17.3754 3.49621C15.5795 1.74542 13.1729 0.762005 10.6648 0.754054C8.15674 0.746105 5.74393 1.71424 3.93696 3.45361C0.0445553 7.21118 0.0584646 13.4597 3.88415 17.2853L16.9285 30.3297L15.5429 31.7154C12.8546 34.4036 8.478 34.4701 5.77447 31.7974C4.74999 30.7824 4.06919 29.4719 3.82767 28.0502C3.58616 26.6285 3.79605 25.1668 4.42789 23.8704C4.73102 23.2511 4.83318 22.5527 4.72012 21.8727C4.60704 21.1925 4.28438 20.5646 3.7972 20.0769C2.90129 20.975 2.1911 22.0406 1.70719 23.2131C1.22328 24.3858 0.97514 25.642 0.976938 26.9106C0.978737 28.1791 1.23044 29.4348 1.71767 30.6059C2.20491 31.7771 2.91812 32.8409 3.81656 33.7363C7.59701 37.4958 13.7339 37.4212 17.5039 33.6511L30.5691 20.5858L31.6458 21.6625C34.334 24.3507 34.4006 28.7272 31.7278 31.4307C30.7129 32.4554 29.4024 33.136 27.9807 33.3777C26.5589 33.6192 25.0972 33.4092 23.8008 32.7773C23.1814 32.474 22.4826 32.3718 21.8023 32.4851C21.1219 32.5983 20.4939 32.9213 20.0061 33.4089C20.9042 34.3048 21.9698 35.0151 23.1423 35.499C24.315 35.9829 25.5713 36.2311 26.8399 36.2293C28.1083 36.2274 29.364 35.9757 30.5351 35.4884C31.7064 35.0012 32.7701 34.2879 33.6655 33.3895C37.425 29.6091 37.3502 23.4722 33.5803 19.7023L20.5328 6.65336ZM18.8764 28.381L8.84079 18.3453L18.5842 8.60211L28.6198 18.6377L18.8764 28.381Z" fill="white"/>
  <path d="M53.1281 30.1379C51.1311 30.1379 49.6044 29.552 48.5482 28.3802C47.5001 27.2084 46.9142 25.6075 46.7905 23.5775L49.9593 22.7853C50.1161 25.9541 51.1723 27.5385 53.1281 27.5385C54.7125 27.5385 55.5047 26.7463 55.5047 25.1619C55.5047 24.6915 55.4387 24.2583 55.3066 23.8622C55.1829 23.4578 54.9889 23.0906 54.7249 22.7605C54.4608 22.4222 54.2215 22.154 54.0069 21.956C53.7924 21.7496 53.4994 21.498 53.1281 21.2009L49.1671 18.0321C48.4409 17.4627 47.8591 16.7406 47.4217 15.8659C46.9926 14.9829 46.7781 13.9803 46.7781 12.858C46.7781 11.2241 47.2856 9.92436 48.3006 8.95887C49.3156 7.99337 50.6607 7.51062 52.3359 7.51062C54.1348 7.51062 55.5625 7.95211 56.6187 8.83508C57.6832 9.70981 58.3393 10.9518 58.5869 12.5609C58.6116 12.7342 58.6405 12.9735 58.6735 13.2789L55.5047 14.0711C55.4964 13.9308 55.4758 13.7203 55.4428 13.4398C55.3025 12.433 54.9848 11.6284 54.4897 11.026C54.0028 10.4154 53.2849 10.11 52.3359 10.11C51.5767 10.11 50.9908 10.3246 50.5782 10.7537C50.1656 11.1746 49.9593 11.7646 49.9593 12.5238C49.9593 13.7699 50.4874 14.8137 51.5437 15.6555L55.5047 18.8243C57.6172 20.5325 58.6735 22.5749 58.6735 24.9515C58.6735 26.5771 58.1701 27.848 57.1634 28.7639C56.1649 29.6799 54.8198 30.1379 53.1281 30.1379Z" fill="white"/>
  <path d="M65.2958 27.5385C66.1293 27.5385 66.9215 27.324 67.6724 26.8948V17.0913C67.6394 17.0748 67.5569 17.0253 67.4249 16.9428C67.2928 16.8603 67.1979 16.8066 67.1402 16.7819C67.0907 16.7489 67.004 16.6994 66.8802 16.6333C66.7565 16.5673 66.6533 16.5219 66.5708 16.4972C66.4965 16.4642 66.3975 16.4312 66.2737 16.3982C66.1582 16.3569 66.0426 16.328 65.9271 16.3115C65.8198 16.295 65.7043 16.2867 65.5805 16.2867C65.3165 16.2867 65.0813 16.3486 64.875 16.4724C64.6769 16.5879 64.5119 16.7282 64.3798 16.8933C64.2478 17.0583 64.1323 17.2935 64.0333 17.5988C63.9425 17.9042 63.8765 18.1765 63.8352 18.4158C63.7939 18.6469 63.7609 18.9604 63.7362 19.3565C63.7114 19.7444 63.6949 20.0456 63.6867 20.2601C63.6867 20.4747 63.6867 20.7759 63.6867 21.1637C63.6867 21.1803 63.6867 21.1926 63.6867 21.2009C63.6867 21.3412 63.6867 21.5681 63.6867 21.8817C63.6867 22.1953 63.6867 22.4965 63.6867 22.7853C63.6867 23.0741 63.6867 23.3464 63.6867 23.6022C63.6949 24.1551 63.7197 24.642 63.7609 25.0629C63.8104 25.4755 63.8888 25.884 63.9961 26.2883C64.1116 26.6844 64.2767 26.9939 64.4912 27.2167C64.7141 27.4312 64.9822 27.5385 65.2958 27.5385ZM67.6724 34.6683V28.4916C67.2021 28.9785 66.7152 29.3746 66.2118 29.6799C65.7167 29.9853 65.1473 30.1379 64.5036 30.1379C63.893 30.1379 63.3483 29.9853 62.8697 29.6799C62.3993 29.3664 62.0197 28.9661 61.7309 28.4792C61.4503 27.9924 61.2152 27.4189 61.0254 26.7587C60.8438 26.0903 60.7159 25.4342 60.6416 24.7906C60.5756 24.1469 60.5426 23.4785 60.5426 22.7853V20.3715C60.5426 19.6536 60.5756 18.9976 60.6416 18.4034C60.7077 17.8093 60.8273 17.2234 61.0006 16.6457C61.1739 16.0681 61.4008 15.5812 61.6814 15.1851C61.9702 14.7807 62.3498 14.4589 62.8202 14.2196C63.2906 13.972 63.8352 13.8482 64.4541 13.8482C64.809 13.8482 65.139 13.8978 65.4444 13.9968C65.7579 14.0876 66.055 14.2361 66.3356 14.4424C66.6244 14.6487 66.8472 14.8302 67.004 14.987C67.1691 15.1356 67.3919 15.3584 67.6724 15.6555V14.0711H70.8413V34.6683H67.6724Z" fill="white"/>
  <path d="M75.644 30.1379C74.9508 30.1379 74.3938 29.8945 73.9729 29.4076C73.5521 28.9125 73.3416 28.3018 73.3416 27.5756V14.0711H76.5105V26.6101C76.5105 26.9402 76.6095 27.2084 76.8075 27.4147C77.0138 27.621 77.2779 27.7242 77.5997 27.7242C77.773 27.7242 77.9422 27.7036 78.1072 27.6623C78.2723 27.621 78.4332 27.5509 78.59 27.4519C78.755 27.3446 78.8829 27.2621 78.9737 27.2043C79.0645 27.1383 79.1924 27.031 79.3574 26.8825C79.5307 26.7339 79.638 26.6432 79.6793 26.6101V14.0711H82.8481V29.9151H79.6793V28.2069C79.3657 28.4792 79.1346 28.6773 78.9861 28.8011C78.8458 28.9249 78.6271 29.094 78.33 29.3086C78.033 29.5149 77.7689 29.6676 77.5378 29.7666C77.315 29.8574 77.0345 29.9399 76.6961 30.0141C76.3578 30.0967 76.0071 30.1379 75.644 30.1379Z" fill="white"/>
  <path d="M89.9532 27.5385C90.176 27.5385 90.3905 27.4725 90.5968 27.3405C90.8114 27.2084 90.9723 27.0805 91.0796 26.9567C91.1868 26.833 91.3189 26.6679 91.4757 26.4616C91.5004 26.4203 91.5211 26.3915 91.5376 26.375V21.9931C91.4055 22.0839 91.1868 22.2241 90.8815 22.4139C90.5762 22.6037 90.3328 22.7605 90.1512 22.8843C89.9697 22.9998 89.751 23.1649 89.4952 23.3794C89.2393 23.5857 89.0413 23.7879 88.901 23.986C88.7607 24.1758 88.6369 24.411 88.5297 24.6915C88.4224 24.9721 88.3687 25.265 88.3687 25.5704C88.3687 26.8825 88.8969 27.5385 89.9532 27.5385ZM88.3687 30.1379C87.4858 30.1379 86.7348 29.7583 86.1159 28.9991C85.5053 28.2317 85.1999 27.3693 85.1999 26.4121C85.1999 25.6446 85.3278 24.9473 85.5837 24.3202C85.8477 23.693 86.1242 23.1938 86.413 22.8224C86.7018 22.4428 87.1846 22.055 87.8612 21.6589C88.5379 21.2545 89.0495 20.9781 89.3961 20.8295C89.7427 20.681 90.3451 20.4376 91.2034 20.0992C91.3519 20.0415 91.4633 19.9961 91.5376 19.9631V18.8243C91.5376 18.0238 91.4262 17.4049 91.2034 16.9675C90.9805 16.5219 90.5638 16.2991 89.9532 16.2991C89.4085 16.2991 89.0165 16.4889 88.7772 16.8685C88.5462 17.2399 88.4141 17.7556 88.3811 18.4158C88.3729 18.5066 88.3687 18.6427 88.3687 18.8243H85.1999C85.2164 17.3059 85.6414 16.0969 86.4749 15.1975C87.3084 14.298 88.4678 13.8482 89.9532 13.8482C91.4303 13.8482 92.5897 14.3062 93.4314 15.2222C94.2814 16.13 94.7064 17.3306 94.7064 18.8243V25.9541C94.7064 27.6045 94.8425 28.9249 95.1149 29.9151H91.9584L91.5376 27.5385C91.3725 27.8686 91.2364 28.1244 91.1291 28.306C91.0301 28.4875 90.8815 28.7144 90.6835 28.9868C90.4854 29.2508 90.2874 29.4571 90.0893 29.6057C89.8913 29.7459 89.6437 29.8697 89.3466 29.977C89.0495 30.0843 88.7236 30.1379 88.3687 30.1379Z" fill="white"/>
  <path d="M97.442 29.9151V14.0711H100.611V16.1877C100.933 15.5606 101.399 15.0159 102.009 14.5538C102.628 14.0834 103.313 13.8482 104.064 13.8482C104.089 13.8482 104.258 13.8648 104.572 13.8978V17.4008C103.986 17.1697 103.4 17.0542 102.814 17.0542C102.154 17.0542 101.622 17.2522 101.217 17.6483C100.813 18.0444 100.611 18.5685 100.611 19.2204V29.9151H97.442Z" fill="white"/>
  <path d="M110.39 30.1379C109.622 30.1379 108.954 30.0059 108.384 29.7418C107.823 29.4778 107.373 29.1353 107.035 28.7144C106.705 28.2853 106.437 27.7407 106.23 27.0805C106.024 26.4121 105.88 25.7478 105.797 25.0876C105.723 24.4192 105.678 23.6435 105.661 22.7605C105.636 22.0674 105.636 21.3742 105.661 20.681C105.686 19.8558 105.739 19.1255 105.822 18.4901C105.913 17.8464 106.065 17.2234 106.28 16.621C106.495 16.0186 106.771 15.5234 107.109 15.1356C107.456 14.7477 107.906 14.4383 108.459 14.2072C109.02 13.9679 109.672 13.8482 110.414 13.8482C111.091 13.8482 111.685 13.939 112.197 14.1206C112.717 14.2939 113.146 14.5621 113.484 14.9251C113.831 15.28 114.115 15.6761 114.338 16.1135C114.569 16.5508 114.743 17.0831 114.858 17.7102C114.974 18.3291 115.052 18.9398 115.093 19.5422C115.143 20.1446 115.168 20.8378 115.168 21.6217V21.9931H108.83V22.7853C108.83 22.8926 108.83 23.0617 108.83 23.2928C108.813 23.5981 108.809 23.9158 108.817 24.2459C108.834 24.5677 108.851 24.8855 108.867 25.199C108.884 25.5126 108.929 25.8138 109.003 26.1026C109.077 26.3832 109.168 26.6308 109.275 26.8453C109.383 27.0599 109.531 27.2291 109.721 27.3528C109.919 27.4766 110.15 27.5385 110.414 27.5385C110.744 27.5385 111.017 27.4766 111.231 27.3528C111.446 27.2208 111.603 27.0269 111.702 26.7711C111.809 26.5152 111.883 26.2594 111.924 26.0036C111.966 25.7478 111.99 25.426 111.999 25.0381V24.3697H115.143V25.001C115.068 26.6927 114.652 27.9717 113.893 28.8382C113.133 29.7047 111.966 30.1379 110.39 30.1379ZM108.83 20.4087H111.974V19.4556C111.966 19.0347 111.941 18.6675 111.9 18.3539C111.858 18.0403 111.784 17.7267 111.677 17.4132C111.578 17.0996 111.421 16.8603 111.206 16.6952C110.992 16.5302 110.728 16.4477 110.414 16.4477C110.092 16.4477 109.82 16.5343 109.597 16.7076C109.383 16.8809 109.222 17.1326 109.115 17.4627C109.016 17.7845 108.945 18.1022 108.904 18.4158C108.863 18.7294 108.838 19.1048 108.83 19.5422V20.4087Z" fill="white"/>
  <path d="M123.387 30.1379C121.39 30.1379 119.863 29.552 118.807 28.3802C117.759 27.2084 117.173 25.6075 117.049 23.5775L120.218 22.7853C120.375 25.9541 121.431 27.5385 123.387 27.5385C124.971 27.5385 125.763 26.7463 125.763 25.1619C125.763 24.6915 125.697 24.2583 125.565 23.8622C125.441 23.4578 125.247 23.0906 124.983 22.7605C124.719 22.4222 124.48 22.154 124.265 21.956C124.051 21.7496 123.758 21.498 123.387 21.2009L119.426 18.0321C118.699 17.4627 118.118 16.7406 117.68 15.8659C117.251 14.9829 117.037 13.9803 117.037 12.858C117.037 11.2241 117.544 9.92436 118.559 8.95887C119.574 7.99337 120.919 7.51062 122.594 7.51062C124.393 7.51062 125.821 7.95211 126.877 8.83508C127.942 9.70981 128.598 10.9518 128.845 12.5609C128.87 12.7342 128.899 12.9735 128.932 13.2789L125.763 14.0711C125.755 13.9308 125.734 13.7203 125.701 13.4398C125.561 12.433 125.243 11.6284 124.748 11.026C124.261 10.4154 123.543 10.11 122.594 10.11C121.835 10.11 121.249 10.3246 120.837 10.7537C120.424 11.1746 120.218 11.7646 120.218 12.5238C120.218 13.7699 120.746 14.8137 121.802 15.6555L125.763 18.8243C127.876 20.5325 128.932 22.5749 128.932 24.9515C128.932 26.5771 128.429 27.848 127.422 28.7639C126.423 29.6799 125.078 30.1379 123.387 30.1379Z" fill="white"/>
  <path d="M135.505 30.1379C134.259 30.1379 133.351 29.8202 132.782 29.1848C132.221 28.5494 131.932 27.588 131.915 26.3007V16.4477H130.331V14.0711H131.915V8.52563H135.084V14.0711H137.461V16.4477H135.084V25.6942C135.084 26.3296 135.171 26.7958 135.344 27.0929C135.517 27.39 135.868 27.5385 136.396 27.5385C136.627 27.5385 136.982 27.4972 137.461 27.4147V29.9894C136.668 30.0884 136.016 30.1379 135.505 30.1379Z" fill="white"/>
  <path d="M147.784 28.6525C147.05 29.6428 145.832 30.1379 144.132 30.1379C142.432 30.1379 141.215 29.6428 140.481 28.6525C139.746 27.6623 139.379 26.2347 139.379 24.3697V19.6165C139.379 17.7515 139.746 16.3239 140.481 15.3336C141.215 14.3434 142.432 13.8482 144.132 13.8482C145.832 13.8482 147.05 14.3434 147.784 15.3336C148.518 16.3239 148.886 17.7515 148.886 19.6165V24.3697C148.886 26.2347 148.518 27.6623 147.784 28.6525ZM143.538 27.4395C143.712 27.5055 143.91 27.5385 144.132 27.5385C144.355 27.5385 144.549 27.5055 144.714 27.4395C144.888 27.3735 145.028 27.2951 145.135 27.2043C145.251 27.1053 145.345 26.965 145.42 26.7834C145.494 26.5936 145.552 26.4286 145.593 26.2883C145.634 26.148 145.663 25.9459 145.68 25.6818C145.696 25.4177 145.704 25.2114 145.704 25.0629C145.713 24.9061 145.717 24.675 145.717 24.3697V19.6165C145.717 19.3111 145.713 19.0842 145.704 18.9357C145.704 18.7789 145.696 18.5685 145.68 18.3044C145.663 18.0403 145.634 17.8381 145.593 17.6979C145.552 17.5576 145.494 17.3967 145.42 17.2151C145.345 17.0253 145.251 16.885 145.135 16.7943C145.028 16.6952 144.888 16.6127 144.714 16.5467C144.549 16.4807 144.355 16.4477 144.132 16.4477C143.91 16.4477 143.712 16.4807 143.538 16.5467C143.373 16.6127 143.233 16.6952 143.117 16.7943C143.01 16.885 142.919 17.0253 142.845 17.2151C142.771 17.3967 142.713 17.5576 142.672 17.6979C142.631 17.8381 142.602 18.0403 142.585 18.3044C142.569 18.5685 142.556 18.7789 142.548 18.9357C142.548 19.0842 142.548 19.3111 142.548 19.6165V24.3697C142.548 24.675 142.548 24.9061 142.548 25.0629C142.556 25.2114 142.569 25.4177 142.585 25.6818C142.602 25.9459 142.631 26.148 142.672 26.2883C142.713 26.4286 142.771 26.5936 142.845 26.7834C142.919 26.965 143.01 27.1053 143.117 27.2043C143.233 27.2951 143.373 27.3735 143.538 27.4395Z" fill="white"/>
  <path d="M151.485 29.9151V14.0711H154.654V15.7792C155.124 15.3501 155.508 15.0242 155.805 14.8014C156.102 14.5703 156.511 14.3558 157.03 14.1577C157.559 13.9514 158.12 13.8482 158.714 13.8482C159.391 13.8482 159.939 14.0958 160.36 14.5909C160.781 15.0861 160.992 15.6926 160.992 16.4105V29.9151H157.823V18.0321C157.823 17.4792 157.744 17.0789 157.588 16.8314C157.431 16.5756 157.113 16.4477 156.634 16.4477C156.362 16.4477 156.09 16.5054 155.817 16.621C155.553 16.7282 155.355 16.8314 155.223 16.9304C155.091 17.0212 154.901 17.1697 154.654 17.376V29.9151H151.485Z" fill="white"/>
  <path d="M168.245 30.1379C167.478 30.1379 166.809 30.0059 166.24 29.7418C165.679 29.4778 165.229 29.1353 164.891 28.7144C164.561 28.2853 164.292 27.7407 164.086 27.0805C163.88 26.4121 163.735 25.7478 163.653 25.0876C163.579 24.4192 163.533 23.6435 163.517 22.7605C163.492 22.0674 163.492 21.3742 163.517 20.681C163.541 19.8558 163.595 19.1255 163.678 18.4901C163.768 17.8464 163.921 17.2234 164.136 16.621C164.35 16.0186 164.627 15.5234 164.965 15.1356C165.311 14.7477 165.761 14.4383 166.314 14.2072C166.875 13.9679 167.527 13.8482 168.27 13.8482C168.947 13.8482 169.541 13.939 170.052 14.1206C170.572 14.2939 171.001 14.5621 171.34 14.9251C171.686 15.28 171.971 15.6761 172.194 16.1135C172.425 16.5508 172.598 17.0831 172.714 17.7102C172.829 18.3291 172.908 18.9398 172.949 19.5422C172.998 20.1446 173.023 20.8378 173.023 21.6217V21.9931H166.685V22.7853C166.685 22.8926 166.685 23.0617 166.685 23.2928C166.669 23.5981 166.665 23.9158 166.673 24.2459C166.69 24.5677 166.706 24.8855 166.723 25.199C166.739 25.5126 166.784 25.8138 166.859 26.1026C166.933 26.3832 167.024 26.6308 167.131 26.8453C167.238 27.0599 167.387 27.2291 167.577 27.3528C167.775 27.4766 168.006 27.5385 168.27 27.5385C168.6 27.5385 168.872 27.4766 169.087 27.3528C169.301 27.2208 169.458 27.0269 169.557 26.7711C169.664 26.5152 169.739 26.2594 169.78 26.0036C169.821 25.7478 169.846 25.426 169.854 25.0381V24.3697H172.998V25.001C172.924 26.6927 172.507 27.9717 171.748 28.8382C170.989 29.7047 169.821 30.1379 168.245 30.1379ZM166.685 20.4087H169.83V19.4556C169.821 19.0347 169.797 18.6675 169.755 18.3539C169.714 18.0403 169.64 17.7267 169.532 17.4132C169.433 17.0996 169.277 16.8603 169.062 16.6952C168.848 16.5302 168.583 16.4477 168.27 16.4477C167.948 16.4477 167.676 16.5343 167.453 16.7076C167.238 16.8809 167.077 17.1326 166.97 17.4627C166.871 17.7845 166.801 18.1022 166.76 18.4158C166.718 18.7294 166.694 19.1048 166.685 19.5422V20.4087Z" fill="white"/>
</svg>