<svg xmlns="http://www.w3.org/2000/svg" width="166" height="33" viewBox="0 0 166 33" fill="none">
  <path d="M6.52498 11.1671L10.6055 8.81376L8.32781 4.87088H29.7486L19.0417 23.4223L16.764 19.4725L12.6836 21.8328L19.0417 32.8426L37.9096 0.157349H0.16687L6.52498 11.1671Z" fill="white"/>
  <path d="M54.8381 26.8534L62.985 7.52173H59.0911L53.3468 21.551L47.575 7.52173H43.681L51.8279 26.8534H54.8381Z" fill="white"/>
  <path d="M67.5914 7.52173V26.8534H81.9797V23.4289H71.292V18.7893H80.3227V15.3648H71.292V10.9462H81.8416V7.52173H67.5914Z" fill="white"/>
  <path d="M87.2898 7.52173V26.8534H90.9904V20.0321H95.492L99.5516 26.8534H103.666L99.2478 19.3969C101.485 18.4027 102.921 16.2762 102.921 13.7631C102.921 11.9956 102.286 10.5043 100.988 9.31681C99.7173 8.12929 98.1432 7.52173 96.2376 7.52173H87.2898ZM96.2376 10.9462C97.867 10.9462 99.0545 12.1337 99.0545 13.7631C99.0545 15.3925 97.867 16.6076 96.2376 16.6076H90.9904V10.9462H96.2376Z" fill="white"/>
  <path d="M113.562 10.9462V26.8534H117.29V10.9462H123.697V7.52173H107.155V10.9462H113.562Z" fill="white"/>
  <path d="M128.736 7.52173V26.8534H143.125V23.4289H132.437V18.7893H141.468V15.3648H132.437V10.9462H142.987V7.52173H128.736Z" fill="white"/>
  <path d="M154.262 16.9942L147.082 26.8534H151.528L156.471 20.0321L161.415 26.8534H165.833L158.681 16.9942L165.557 7.52173H161.138L156.471 13.9564L151.804 7.52173H147.358L154.262 16.9942Z" fill="white"/>
</svg>